<svg width="30" height="36" viewBox="0 0 30 36" fill="none" xmlns="http://www.w3.org/2000/svg">
<path d="M11.875 6.125C11.875 5.2962 12.2042 4.50134 12.7903 3.91529C13.3763 3.32924 14.1712 3 15 3C15.8288 3 16.6236 3.32924 17.2097 3.91529C17.7957 4.50134 18.125 5.2962 18.125 6.125C18.125 6.9538 17.7957 7.74866 17.2097 8.33471C16.6236 8.92076 15.8288 9.25 15 9.25C14.1712 9.25 13.3763 8.92076 12.7903 8.33471C12.2042 7.74866 11.875 6.9538 11.875 6.125ZM15 0.500001C14.1516 0.500013 13.3142 0.691918 12.5505 1.06135C11.7868 1.43079 11.1166 1.96818 10.59 2.6333C10.0634 3.29843 9.69402 4.07405 9.50959 4.90212C9.32515 5.73019 9.33041 6.58925 9.52497 7.415L5.49497 5.79C4.51717 5.3962 3.42345 5.40429 2.45158 5.81251C1.47971 6.22073 0.708273 6.99608 0.30497 7.97C0.105345 8.4523 0.00329366 8.96939 0.00471434 9.49137C0.00613502 10.0134 0.111 10.5299 0.313248 11.0111C0.515495 11.4923 0.811114 11.9286 1.18302 12.2949C1.55492 12.6612 1.99573 12.9501 2.47997 13.145L7.49997 15.1725V21.1325L2.96747 29.6575C2.72206 30.1188 2.56991 30.6239 2.5197 31.1439C2.4695 31.664 2.52222 32.1889 2.67485 32.6886C2.82749 33.1883 3.07705 33.653 3.40929 34.0562C3.74154 34.4595 4.14995 34.7933 4.61122 35.0388C5.54279 35.5344 6.6331 35.6396 7.64228 35.3314C8.65146 35.0231 9.49685 34.3266 9.99247 33.395L15 23.975L20.01 33.395C20.5053 34.3266 21.3503 35.0232 22.3593 35.3317C23.3682 35.6402 24.4584 35.5353 25.39 35.04C26.3215 34.5447 27.0182 33.6996 27.3267 32.6907C27.6352 31.6817 27.5303 30.5916 27.035 29.66L22.5 21.13V15.1725L27.52 13.145C28.0042 12.9501 28.445 12.6612 28.8169 12.2949C29.1888 11.9286 29.4844 11.4923 29.6867 11.0111C29.8889 10.5299 29.9938 10.0134 29.9952 9.49137C29.9966 8.96939 29.8946 8.4523 29.695 7.97C29.2921 6.99563 28.5209 6.21971 27.549 5.811C26.5771 5.40229 25.4831 5.39384 24.505 5.7875L20.4775 7.415C20.6721 6.58905 20.6773 5.72977 20.4927 4.90151C20.3081 4.07326 19.9386 3.29749 19.4117 2.63232C18.8848 1.96715 18.2142 1.42981 17.4502 1.06054C16.6862 0.691264 15.8485 0.499636 15 0.500001ZM2.61747 8.9225C2.76874 8.55881 3.05699 8.26921 3.41997 8.11626C3.78295 7.9633 4.19153 7.95926 4.55747 8.105L13.1275 11.5675C14.3287 12.0527 15.6713 12.0527 16.8725 11.5675L25.4425 8.105C25.8084 7.95926 26.217 7.9633 26.58 8.11626C26.943 8.26921 27.2312 8.55881 27.3825 8.9225C27.4565 9.09994 27.4946 9.29033 27.4944 9.48261C27.4942 9.67488 27.4557 9.8652 27.3813 10.0425C27.3068 10.2198 27.1979 10.3805 27.0607 10.5152C26.9236 10.65 26.761 10.7561 26.5825 10.8275L21.5625 12.8525C21.1 13.0396 20.7041 13.3607 20.4257 13.7746C20.1472 14.1885 19.999 14.6762 20 15.175V21.1325C19.9997 21.5422 20.1002 21.9457 20.2925 22.3075L24.8275 30.835C24.9914 31.179 25.0164 31.573 24.8971 31.935C24.7778 32.297 24.5235 32.5989 24.1872 32.7781C23.8508 32.9572 23.4583 32.9997 23.0914 32.8967C22.7244 32.7937 22.4114 32.5531 22.2175 32.225L17.2075 22.8C16.9945 22.3994 16.6766 22.0643 16.2877 21.8306C15.8988 21.5969 15.4537 21.4734 15 21.4734C14.5463 21.4734 14.1011 21.5969 13.7123 21.8306C13.3234 22.0643 13.0054 22.3994 12.7925 22.8L7.78497 32.2175C7.69387 32.3889 7.5699 32.5406 7.42015 32.6641C7.27039 32.7876 7.09779 32.8803 6.91219 32.9371C6.72659 32.9938 6.53163 33.0135 6.33843 32.9949C6.14524 32.9763 5.9576 32.9199 5.78622 32.8288C5.61485 32.7376 5.46309 32.6137 5.33963 32.4639C5.21616 32.3142 5.1234 32.1416 5.06664 31.956C5.00988 31.7704 4.99023 31.5754 5.00882 31.3822C5.02741 31.189 5.08387 31.0014 5.17497 30.83L9.70747 22.305C9.89938 21.944 9.99982 21.5414 9.99997 21.1325V15.1725C9.99996 14.6745 9.85123 14.1879 9.57284 13.775C9.29446 13.3621 8.89911 13.0417 8.43747 12.855L3.41747 10.825C3.23893 10.7536 3.07636 10.6475 2.93922 10.5127C2.80209 10.378 2.69312 10.2173 2.61868 10.04C2.54423 9.8627 2.50578 9.67238 2.50558 9.48011C2.50537 9.28783 2.54341 9.09994 2.61747 8.9225Z" fill="#A729F5"/>
</svg>
