<svg width="34" height="26" viewBox="0 0 34 26" fill="none" xmlns="http://www.w3.org/2000/svg">
<path d="M21.5075 0.607508C21.6575 0.674139 21.793 0.769676 21.9061 0.888662C22.0192 1.00765 22.1078 1.14775 22.1668 1.30097C22.2257 1.4542 22.2539 1.61753 22.2498 1.78166C22.2456 1.94578 22.2091 2.10748 22.1425 2.25751L12.1425 24.7575C12.0079 25.0605 11.7584 25.2976 11.449 25.4167C11.1395 25.5358 10.7955 25.5271 10.4925 25.3925C10.1895 25.2579 9.95233 25.0085 9.83324 24.699C9.71416 24.3896 9.72287 24.0455 9.85747 23.7425L19.8575 1.24251C19.9241 1.09246 20.0196 0.957008 20.1386 0.843887C20.2576 0.730767 20.3977 0.642193 20.5509 0.583226C20.7042 0.524259 20.8675 0.496053 21.0316 0.500219C21.1957 0.504386 21.3574 0.540843 21.5075 0.607508ZM7.83247 6.44001C7.95493 6.54933 8.05466 6.6817 8.12597 6.82957C8.19727 6.97744 8.23875 7.1379 8.24803 7.3018C8.25732 7.46569 8.23423 7.62982 8.18009 7.78479C8.12594 7.93976 8.0418 8.08255 7.93247 8.20501L3.67497 13L7.93747 17.795C8.04647 17.9178 8.13021 18.0608 8.18392 18.216C8.23764 18.3711 8.26026 18.5354 8.25051 18.6993C8.24076 18.8631 8.19883 19.0235 8.1271 19.1712C8.05537 19.3189 7.95526 19.451 7.83247 19.56C7.70968 19.669 7.56663 19.7528 7.41148 19.8065C7.25633 19.8602 7.09212 19.8828 6.92822 19.8731C6.76433 19.8633 6.60396 19.8214 6.45627 19.7496C6.30858 19.6779 6.17647 19.5778 6.06747 19.455L1.06747 13.83C0.864331 13.6013 0.752136 13.3059 0.752136 13C0.752136 12.6941 0.864331 12.3988 1.06747 12.17L6.06747 6.54501C6.17645 6.42219 6.30856 6.32205 6.45625 6.25031C6.60394 6.17856 6.76431 6.13661 6.92822 6.12686C7.09212 6.11711 7.25634 6.13975 7.4115 6.19348C7.56665 6.24721 7.7097 6.33098 7.83247 6.44001ZM26.17 6.44001C26.2927 6.33098 26.4358 6.24721 26.5909 6.19348C26.7461 6.13975 26.9103 6.11711 27.0742 6.12686C27.2381 6.13661 27.3985 6.17856 27.5462 6.25031C27.6939 6.32205 27.826 6.42219 27.935 6.54501L32.935 12.17C33.1381 12.3988 33.2503 12.6941 33.2503 13C33.2503 13.3059 33.1381 13.6013 32.935 13.83L27.935 19.455C27.826 19.5778 27.6939 19.6779 27.5462 19.7496C27.3985 19.8214 27.2381 19.8633 27.0742 19.8731C26.9103 19.8828 26.7461 19.8602 26.591 19.8065C26.4358 19.7528 26.2928 19.669 26.17 19.56C26.0472 19.451 25.9471 19.3189 25.8753 19.1712C25.8036 19.0235 25.7617 18.8631 25.7519 18.6993C25.7422 18.5354 25.7648 18.3711 25.8185 18.216C25.8722 18.0608 25.956 17.9178 26.065 17.795L30.3275 13L26.065 8.20501C25.9559 8.08224 25.8722 7.93919 25.8184 7.78403C25.7647 7.62888 25.7421 7.46466 25.7518 7.30076C25.7616 7.13685 25.8035 6.97647 25.8753 6.82878C25.947 6.68109 26.0472 6.54899 26.17 6.44001Z" fill="#FF7E35"/>
</svg>
